<?xml version="1.0" encoding="UTF-8"?>
<!DOCTYPE svg PUBLIC "-//W3C//DTD SVG 1.1//EN" "http://www.w3.org/Graphics/SVG/1.1/DTD/svg11.dtd">
<!-- Creator: CorelDRAW -->
<svg xmlns="http://www.w3.org/2000/svg" xml:space="preserve" width="2048px" height="2048px" style="shape-rendering:geometricPrecision; text-rendering:geometricPrecision; image-rendering:optimizeQuality; fill-rule:evenodd; clip-rule:evenodd"
viewBox="0 0 2048 2048"
 xmlns:xlink="http://www.w3.org/1999/xlink">
 <defs>
  <style type="text/css">
   <![CDATA[
    .fil4 {fill:none}
    .fil3 {fill:#707070}
    .fil1 {fill:#838383;fill-rule:nonzero}
    .fil0 {fill:#CCCCCC;fill-rule:nonzero}
    .fil2 {fill:#D4D4D4;fill-rule:nonzero}
   ]]>
  </style>
 </defs>
 <g id="Layer_x0020_1">
  <metadata id="CorelCorpID_0Corel-Layer"/>
  <g id="_316061504">
   <path id="_316061936" class="fil0" d="M255.998 841.529l0 672.703c0,53.4331 21.8374,101.989 57.0166,137.169 35.1803,35.1803 83.7355,57.0178 137.169,57.0178l1147.63 0c53.4331,0 101.988,-21.8374 137.169,-57.0178 35.1792,-35.1792 57.0166,-83.7355 57.0166,-137.169l0 -672.703 -1536 0z"/>
   <path id="_316061912" class="fil1" d="M450.183 494.415c-53.4331,0 -101.988,21.8374 -137.169,57.0166 -35.1792,35.1792 -57.0166,83.7343 -57.0166,137.167l0 155.306 1536 0 0 -155.306c0,-53.4331 -21.8374,-101.988 -57.0166,-137.167 -35.1803,-35.1792 -83.7355,-57.0166 -137.169,-57.0166 -138.286,0 -1009.34,0 -1147.63,0z"/>
   <g>
    <path id="_316061888" class="fil2" d="M596 339.583l0.0011811 0c23.2618,0 44.3953,9.49961 59.7012,24.8055 15.3047,15.3059 24.8055,36.4382 24.8055,59.7012l0 198.078c0,23.263 -9.50079,44.3953 -24.8055,59.7012 -15.3059,15.3047 -36.4394,24.8055 -59.7012,24.8055l-0.0011811 0c-23.2618,0 -44.3953,-9.50079 -59.7,-24.8055 -15.3059,-15.3059 -24.8067,-36.4382 -24.8067,-59.7012l0 -198.078c0,-23.263 9.50079,-44.3953 24.8067,-59.7012 15.3047,-15.3059 36.4382,-24.8055 59.7,-24.8055z"/>
    <path id="_316061672" class="fil2" d="M1452 339.583l0.0011811 0c23.2618,0 44.3953,9.49961 59.7012,24.8055 15.3047,15.3059 24.8055,36.4382 24.8055,59.7012l0 198.078c0,23.263 -9.50079,44.3953 -24.8055,59.7012 -15.3059,15.3047 -36.4394,24.8055 -59.7012,24.8055l-0.0011811 0c-23.2618,0 -44.3953,-9.49961 -59.7,-24.8055 -15.3047,-15.3059 -24.8055,-36.4382 -24.8055,-59.7012l0 -198.078c0,-23.263 9.50079,-44.3953 24.8055,-59.7012 15.3047,-15.3059 36.4382,-24.8055 59.7,-24.8055z"/>
   </g>
   <g>
    <path id="_316061624" class="fil3" d="M1001.24 1151.52c0,-40.4492 -14.3728,-75.0024 -43.7292,-102.894 -32.0693,-30.4689 -73.7233,-41.3693 -117.13,-41.3693 -42.4004,0 -84.1075,9.78544 -116.648,38.2914 -32.6162,28.5744 -46.6796,68.5808 -50.543,110.869l-0.778347 8.52284 79.578 8.0752 0.0696851 -9.49607c0.18189,-24.4524 6.14646,-48.0981 23.8406,-65.7934 17.1791,-17.178 39.176,-23.4992 63.1158,-23.4992 22.8059,0 43.8461,6.03308 60.5138,22.0311 15.3721,14.7555 22.8059,32.6079 22.8059,53.8985 0,24.3992 -12.1937,47.7449 -26.2902,66.9567 -11.4697,15.6307 -25.9807,30.4075 -39.9378,43.8178 -21.1252,20.2961 -43.5815,39.4866 -66.2268,58.0583 -27.5988,22.6323 -56.3741,47.7414 -79.5402,74.9729 -17.178,20.1921 -31.552,42.7052 -40.9477,67.5697 -5.4626,14.4567 -7.97599,29.478 -7.48938,44.9339l0.264567 8.37402 339.754 0 0 -74.9256 -231.764 0c4.71496,-6.22441 9.83977,-12.1476 15.2126,-17.7898 7.60276,-7.98426 16.2354,-15.6189 24.4784,-22.9382 14.4827,-12.8599 29.2547,-25.4315 44.0622,-37.9146 18.9071,-15.939 37.6311,-32.1957 55.7351,-49.0453 12.9319,-12.0378 25.8366,-24.5481 37.5756,-37.7622 16.2803,-18.3295 31.6524,-39.2575 41.2807,-61.93 8.26064,-19.4492 12.7382,-39.8729 12.7382,-61.0134z"/>
    <path id="_316060880" class="fil3" d="M1343.2 1075.45c-13.2319,-22.0347 -32.139,-38.4343 -54.978,-50.0847 -24.1961,-12.3437 -50.3315,-18.1099 -77.478,-18.1099 -38.126,0 -73.3087,10.4102 -102.563,35.2488 -29.9729,25.4481 -45.9107,60.3012 -52.8154,98.4957l-1.54252 8.52875 77.1792 13.7658 1.32756 -8.77796c3.32599,-22.0004 10.7539,-45.3839 27.3898,-61.043 14.5925,-13.7386 32.3386,-19.5898 52.2756,-19.5898 19.6725,0 37.3512,5.49922 51.6272,19.2851 13.6595,13.1894 19.7551,29.4921 19.7551,48.3461 0,22.7232 -7.33229,41.7366 -26.7579,54.3638 -19.4811,12.6626 -40.9465,18.6106 -64.1776,18.6106 -2.86418,0 -5.83701,-0.302362 -8.67993,-0.625985l-8.48032 -0.968505 -9.40749 73.819 12.4016 -3.26811c12.6248,-3.32599 26.9764,-6.42048 40.0855,-6.42048 24.1358,0 45.3284,7.23898 62.576,24.3236 17.1236,16.9618 24.3792,38.002 24.3792,61.9512 0,25.8414 -8.35512,48.1524 -26.5949,66.5528 -18.0142,18.1725 -39.8197,26.7685 -65.3623,26.7685 -20.8453,0 -39.1784,-6.2126 -54.6674,-20.2642 -18.5398,-16.8201 -27.6118,-44.9729 -32.465,-68.7615l-1.61221 -7.90394 -76.1847 10.1185 0.812599 8.3126c4.03937,41.3138 20.3197,76.9418 51.2433,104.821 31.6394,28.5272 70.213,40.5343 112.532,40.5343 47.1508,0 89.5347,-14.0894 123.853,-46.839 32.6823,-31.1894 49.2839,-69.515 49.2839,-114.704 0,-30.2953 -7.06418,-59.5087 -25.6406,-83.9009 -13.8,-18.1252 -31.4965,-30.6449 -51.952,-38.5347 13.8862,-8.89725 25.9925,-20.1213 35.2536,-34.2449 12.3827,-18.8835 18.4665,-39.8008 18.4665,-62.3752 0,-24.2091 -6.62245,-46.6843 -19.0819,-67.4292z"/>
   </g>
   <path id="_316061072" class="fil3" d="M511.493 622.167l0 -127.753 -31.9996 0 0 127.753c0,30.9579 12.3012,60.45 34.1788,82.3288 21.8776,21.8764 51.3709,34.1776 82.3288,34.1776 30.9567,0 60.4512,-12.3012 82.3288,-34.1776 21.8776,-21.8776 34.1776,-51.3709 34.1776,-82.3288l0 -127.753 -31.9996 0 0 127.753c0,23.263 -9.50079,44.3953 -24.8055,59.7012 -15.3059,15.3047 -36.4394,24.8055 -59.7024,24.8055 -23.2618,0 -44.3953,-9.50079 -59.7,-24.8055 -15.3059,-15.3059 -24.8067,-36.4382 -24.8067,-59.7012z"/>
   <path id="_316061000" class="fil3" d="M1452 738.674c30.9567,0 60.4512,-12.3012 82.3288,-34.1776 21.8776,-21.8776 34.1776,-51.3709 34.1776,-82.3288l0 -127.753 -31.9996 0 0 127.753c0,23.263 -9.50079,44.3953 -24.8055,59.7012 -15.3059,15.3047 -36.4394,24.8055 -59.7024,24.8055 -23.2618,0 -44.3953,-9.49961 -59.7,-24.8055 -15.3047,-15.3059 -24.8055,-36.4382 -24.8055,-59.7012l0 -127.753 -31.9996 0 0 127.753c0,30.9579 12.3012,60.45 34.1776,82.3276 21.8764,21.8788 51.3709,34.1788 82.3288,34.1788z"/>
  </g>
 </g>
 <rect class="fil4" width="2048" height="2048"/>
</svg>
