<?xml version="1.0" encoding="iso-8859-1"?>
<!-- Generator: Adobe Illustrator 19.0.0, SVG Export Plug-In . SVG Version: 6.00 Build 0)  -->
<svg xmlns="http://www.w3.org/2000/svg" xmlns:xlink="http://www.w3.org/1999/xlink" version="1.1" id="Capa_1" x="0px" y="0px" viewBox="0 0 512 512" style="enable-background:new 0 0 512 512;" xml:space="preserve">
<path style="fill:#9B735A;" d="M404,342.5v-173h95.204c3.201,0,5.796,2.595,5.796,5.796v161.408c0,3.201-2.595,5.796-5.796,5.796  H404z"/>
<rect x="404" y="169.5" style="fill:#8C5F50;" width="46.608" height="173"/>
<rect x="398" y="194.5" style="fill:#B4E66E;" width="82" height="123"/>
<rect x="404" y="194.5" style="fill:#A0D755;" width="46.608" height="123"/>
<rect x="398" y="194.5" style="fill:#4AA9FF;" width="82" height="61.5"/>
<rect x="404" y="194.5" style="fill:#2892E0;" width="46.608" height="61.5"/>
<path style="fill:#9B735A;" d="M290,369.5v-227h120.204c3.201,0,5.796,2.595,5.796,5.796v215.408c0,3.201-2.595,5.796-5.796,5.796  H290z"/>
<rect x="290" y="142.5" style="fill:#8C5F50;" width="45.69" height="227"/>
<rect x="280.38" y="167.5" style="fill:#B4E66E;" width="110.62" height="177"/>
<rect x="290" y="167.5" style="fill:#A0D755;" width="45.69" height="177"/>
<rect x="280.38" y="167.5" style="fill:#4AA9FF;" width="110.62" height="88.5"/>
<rect x="290" y="167.5" style="fill:#2892E0;" width="45.69" height="88.5"/>
<path style="fill:#9B735A;" d="M7,398.306V113.694c0-2.316,1.878-4.194,4.194-4.194h284.612c2.316,0,4.194,1.878,4.194,4.194  v284.612c0,2.316-1.878,4.194-4.194,4.194H11.194C8.878,402.5,7,400.622,7,398.306z"/>
<path style="fill:#8C5F50;" d="M69.054,398.306V113.694c0-2.316,1.878-4.194,4.194-4.194H11.194C8.878,109.5,7,111.378,7,113.694  v284.612c0,2.316,1.878,4.194,4.194,4.194h62.054C70.931,402.5,69.054,400.622,69.054,398.306z"/>
<rect x="32" y="134.5" style="fill:#4AA9FF;" width="243" height="243"/>
<path style="fill:#FFDC64;" d="M225.666,256.114c-1.693-17.863-9.955-34.41-23.264-46.593c-13.4-12.266-30.767-19.021-48.902-19.021  s-35.502,6.755-48.902,19.021c-13.309,12.183-21.571,28.73-23.264,46.593l-0.875,9.228v30.89h146.08v-30.89L225.666,256.114z"/>
<path style="fill:#FFBD52;" d="M133.731,256.115c1.693-17.863,9.955-34.41,23.264-46.593c6.707-6.14,14.409-10.898,22.703-14.121  c-8.276-3.215-17.141-4.901-26.198-4.901c-18.135,0-35.502,6.755-48.902,19.021c-13.309,12.183-21.571,28.73-23.264,46.593  l-0.875,9.228v30.89h52.397v-30.89L133.731,256.115z"/>
<path style="fill:#A0D755;" d="M32,377.5v-93.301l7.1-0.804c10.782-1.221,17.185-5.454,23.376-9.546  c7.497-4.957,15.25-10.083,30.526-10.083s23.029,5.126,30.527,10.083c7.715,5.1,15.001,9.917,29.975,9.917  s22.259-4.817,29.973-9.917c7.498-4.958,15.25-10.083,30.526-10.083c15.275,0,23.027,5.126,30.524,10.083  c6.19,4.092,12.591,8.325,23.373,9.546l7.1,0.804V377.5H32z"/>
<path style="fill:#B4E66E;" d="M267.9,283.395c-10.782-1.221-17.183-5.454-23.373-9.546c-7.497-4.958-15.249-10.083-30.524-10.083  c-15.276,0-23.028,5.126-30.526,10.083c-7.713,5.1-14.999,9.917-29.973,9.917s-22.26-4.817-29.975-9.917  c-7.498-4.957-15.251-10.083-30.527-10.083s-23.029,5.126-30.526,10.083c-6.191,4.093-12.594,8.325-23.376,9.546l-7.1,0.804v43.658  l7.1-0.804c10.782-1.221,17.185-5.454,23.376-9.546c7.497-4.957,15.25-10.083,30.526-10.083s23.029,5.126,30.527,10.083  c7.715,5.1,15.001,9.917,29.975,9.917s22.259-4.817,29.973-9.917c7.498-4.958,15.25-10.083,30.526-10.083  c15.275,0,23.027,5.126,30.524,10.083c6.19,4.092,12.591,8.325,23.373,9.546l7.1,0.804v-43.658L267.9,283.395z"/>
<path d="M504.5,162.5H423V143c0-4.142-3.357-7.5-7.5-7.5H307V110c0-4.142-3.357-7.5-7.5-7.5H7.5c-4.142,0-7.5,3.358-7.5,7.5v292  c0,4.142,3.358,7.5,7.5,7.5h292c4.143,0,7.5-3.358,7.5-7.5v-25.5h108.5c4.143,0,7.5-3.358,7.5-7.5v-19.5h81.5  c4.143,0,7.5-3.358,7.5-7.5V170C512,165.858,508.643,162.5,504.5,162.5z M292,394.5H15v-277h277V394.5z M307,175.5h76v161h-76V175.5  z M408,361.5H307v-10h83.5c4.143,0,7.5-3.358,7.5-7.5V168c0-4.142-3.357-7.5-7.5-7.5H307v-10h101V361.5z M423,202.5h49v107h-49  V202.5z M497,334.5h-74v-10h56.5c4.143,0,7.5-3.358,7.5-7.5V195c0-4.142-3.357-7.5-7.5-7.5H423v-10h74V334.5z"/>
<path d="M267,344.809V369.5H40v-78.156c12.64-1.431,20.154-6.37,26.887-10.822c7.107-4.699,13.245-8.756,26.115-8.756  c12.871,0,19.008,4.058,26.115,8.756c7.972,5.27,17.007,11.244,34.387,11.244s26.415-5.974,34.386-11.244  c7.106-4.699,13.244-8.756,26.113-8.756s19.006,4.058,26.112,8.756c6.733,4.452,14.246,9.391,26.885,10.822v9.805  c0,4.142,3.358,7.5,7.5,7.5l0,0c4.142,0,7.5-3.358,7.5-7.5V135c0-4.142-3.358-7.5-7.5-7.5h-242c-4.142,0-7.5,3.358-7.5,7.5v242  c0,4.142,3.358,7.5,7.5,7.5h242c4.142,0,7.5-3.358,7.5-7.5v-32.191c0-4.142-3.358-7.5-7.5-7.5l0,0  C270.358,337.309,267,340.666,267,344.809z M214.003,256.765c-17.38,0-26.415,5.974-34.386,11.244  c-7.106,4.699-13.244,8.756-26.113,8.756c-12.87,0-19.008-4.058-26.115-8.756c-7.972-5.27-17.007-11.244-34.387-11.244  c-1.283,0-2.508,0.042-3.703,0.104c3.099-32.7,30.704-58.37,64.201-58.37s61.102,25.67,64.201,58.369  C216.507,256.807,215.284,256.765,214.003,256.765z M40,142.5h227v133.716c-8.067-1.254-13.05-4.529-18.612-8.207  c-4.416-2.919-9.165-6.051-15.471-8.267C231.2,217.412,196.244,183.5,153.5,183.5s-77.701,33.913-79.417,76.243  c-6.305,2.216-11.053,5.347-15.468,8.265c-5.563,3.678-10.546,6.953-18.615,8.207V142.5z"/>
<path d="M153.5,170.5c4.142,0,7.5-3.358,7.5-7.5v-8c0-4.142-3.358-7.5-7.5-7.5s-7.5,3.358-7.5,7.5v8  C146,167.142,149.358,170.5,153.5,170.5z"/>
<path d="M82.436,195.542c1.464,1.464,3.384,2.197,5.303,2.197s3.839-0.732,5.303-2.197c2.929-2.929,2.929-7.678,0-10.606  l-5.657-5.657c-2.929-2.929-7.678-2.929-10.606,0c-2.929,2.929-2.929,7.678,0,10.606L82.436,195.542z"/>
<path d="M213.397,194.896c1.919,0,3.839-0.732,5.303-2.197l5.657-5.657c2.929-2.929,2.929-7.678,0-10.606  c-2.929-2.929-7.678-2.929-10.606,0l-5.657,5.657c-2.929,2.929-2.929,7.678,0,10.606  C209.558,194.164,211.478,194.896,213.397,194.896z"/>
<g>
</g>
<g>
</g>
<g>
</g>
<g>
</g>
<g>
</g>
<g>
</g>
<g>
</g>
<g>
</g>
<g>
</g>
<g>
</g>
<g>
</g>
<g>
</g>
<g>
</g>
<g>
</g>
<g>
</g>
</svg>
